<?xml version="1.0" standalone="no"?>
<!DOCTYPE svg PUBLIC "-//W3C//DTD SVG 20010904//EN"
 "http://www.w3.org/TR/2001/REC-SVG-20010904/DTD/svg10.dtd">
<svg version="1.0" xmlns="http://www.w3.org/2000/svg"
 width="16.000000pt" height="16.000000pt" viewBox="0 0 16.000000 16.000000"
 preserveAspectRatio="xMidYMid meet">
<metadata>
Created by potrace 1.11, written by Peter Selinger 2001-2013
</metadata>
<g transform="translate(0.000000,16.000000) scale(0.010191,-0.010191)"
fill="#000000" stroke="none">
<path d="M576 1388 l4 -183 -36 -20 c-51 -27 -136 -115 -165 -170 l-24 -45
-166 6 -167 6 2 -208 1 -209 170 0 170 0 24 -35 c37 -54 91 -108 143 -141 42
-27 47 -34 43 -62 -2 -18 -7 -97 -10 -177 l-6 -146 227 1 226 0 -2 120 c-1 66
-3 146 -4 178 -3 52 -1 60 22 75 50 35 123 106 148 147 l27 42 96 -4 c53 -2
125 -5 161 -7 36 -1 71 -1 78 2 9 3 12 53 12 206 l0 201 -159 -1 c-87 -1 -163
1 -168 5 -5 3 -21 27 -36 53 -34 58 -111 137 -161 163 l-37 20 6 147 c4 81 8
161 10 177 2 17 -1 31 -8 33 -7 3 -105 6 -219 7 l-207 2 5 -183z m332 123 l44
-1 -6 -77 c-3 -43 -8 -139 -11 -213 -4 -74 -8 -141 -11 -149 -2 -7 14 -31 37
-52 22 -21 52 -53 65 -71 l25 -33 222 -5 222 -5 0 -145 0 -145 -105 1 c-58 1
-160 3 -228 6 l-122 5 -49 -52 -49 -52 4 -69 c2 -38 5 -143 6 -234 l3 -165
-145 2 c-206 2 -202 2 -197 11 3 4 8 63 11 132 10 196 18 294 23 303 3 4 -20
32 -50 63 l-55 54 -219 -1 c-120 0 -225 0 -234 0 -14 1 -15 20 -14 144 1 79 5
148 8 154 5 7 26 10 55 8 26 -2 124 -7 218 -10 l171 -6 16 25 c9 14 34 43 55
64 l39 39 -5 240 -4 239 119 -2 c65 -2 138 -3 161 -3z m-328 -413 c0 -37 -6
-49 -45 -90 -39 -40 -51 -46 -76 -43 -17 2 -34 6 -37 9 -14 15 122 166 149
166 5 0 9 -19 9 -42z m489 -16 c32 -32 65 -72 74 -89 l16 -31 -37 2 c-31 2
-46 11 -87 55 -38 41 -50 61 -51 87 -2 49 18 44 85 -24z m-513 -553 c33 -32
41 -59 28 -93 -5 -14 -12 -12 -43 11 -42 31 -101 96 -101 110 0 5 18 8 41 7
31 -1 48 -9 75 -35z m574 22 c-12 -23 -88 -99 -112 -112 -16 -9 -18 -5 -18 30
0 57 40 98 98 100 39 1 42 -1 32 -18z"/>
<path d="M644 1489 c-7 -12 4 -62 16 -69 6 -3 4 -22 -2 -44 -8 -26 -9 -42 -1
-54 6 -10 7 -26 2 -39 -4 -12 -5 -34 -2 -50 7 -33 7 -45 -2 -99 -9 -52 2 -59
46 -30 24 16 41 21 59 16 14 -4 36 -3 49 2 17 6 33 3 59 -12 39 -24 39 -24 42
10 4 46 0 71 -10 65 -5 -3 -3 6 5 21 13 26 11 69 -4 89 -5 5 -5 19 0 30 4 11
8 31 8 43 1 30 -23 24 -27 -6 -3 -22 -13 -28 -26 -15 -3 4 7 21 24 38 35 36
54 87 38 103 -8 8 -21 7 -46 -3 -19 -8 -37 -13 -41 -10 -18 10 -70 14 -76 5
-4 -6 -13 -7 -23 -1 -30 15 -81 21 -88 10z m51 -38 c3 -5 1 -12 -4 -15 -5 -3
-11 1 -15 9 -6 16 9 21 19 6z m113 0 c11 -7 10 -10 -3 -15 -20 -7 -38 1 -30
15 7 11 16 11 33 0z m82 -1 c0 -5 -4 -10 -9 -10 -6 0 -13 5 -16 10 -3 6 1 10
9 10 9 0 16 -4 16 -10z m-140 -35 c10 -12 9 -16 -5 -21 -19 -8 -40 9 -31 25
10 15 21 14 36 -4z m99 -20 c-9 -9 -23 -13 -32 -9 -15 5 -14 8 6 24 27 22 50
8 26 -15z m-140 -29 c11 -14 6 -15 -27 -7 -4 1 8 21 12 21 2 0 9 -6 15 -14z
m88 -24 c-9 -11 -13 -11 -24 4 -10 13 -10 20 -2 25 18 11 39 -13 26 -29z m-40
-22 c14 0 14 -3 -2 -20 -10 -11 -22 -20 -27 -20 -16 0 -20 30 -7 46 8 10 15
12 17 5 2 -6 11 -11 19 -11z m92 -26 c-6 -7 -7 -19 -3 -26 4 -7 -3 -3 -15 10
-18 19 -20 26 -11 38 10 11 16 12 26 3 11 -9 11 -15 3 -25z m-58 -67 c-13 -12
-21 -17 -17 -11 3 7 -1 17 -9 24 -13 11 -13 14 2 26 15 11 20 10 33 -2 13 -12
11 -17 -9 -37z m-85 32 c3 -6 0 -17 -7 -25 -12 -11 -14 -9 -15 11 -2 26 10 33
22 14z m176 -15 c-4 -22 -6 -24 -14 -10 -9 16 -3 36 11 36 5 0 6 -12 3 -26z
m-31 -58 c-10 -12 -17 -13 -31 -3 -17 10 -17 13 -5 27 8 9 13 19 12 22 -2 3 5
-3 16 -13 17 -15 18 -21 8 -33z m-103 -4 c-17 -20 -40 5 -27 30 10 19 11 19
24 1 9 -13 10 -22 3 -31z m52 -21 c0 -4 -7 -8 -15 -8 -16 0 -20 9 -9 20 8 8
24 -1 24 -12z m-96 -6 c3 -8 1 -15 -4 -15 -6 0 -10 7 -10 15 0 8 2 15 4 15 2
0 6 -7 10 -15z m182 -12 c-10 -10 -19 5 -10 18 6 11 8 11 12 0 2 -7 1 -15 -2
-18z"/>
<path d="M684 1002 c-61 -34 -90 -55 -108 -79 -19 -26 -25 -95 -8 -101 7 -2 7
-13 0 -33 -16 -45 -4 -108 26 -138 14 -14 38 -41 52 -59 26 -33 29 -33 83 -28
31 3 84 6 118 5 56 0 65 3 94 30 18 17 28 31 24 31 -5 0 1 11 13 23 28 29 42
75 31 102 -4 11 -5 41 -2 67 6 50 -20 113 -44 104 -7 -3 -12 -2 -11 2 5 19
-15 49 -42 65 -27 17 -48 19 -130 14 -14 0 -34 2 -45 6 -12 4 -32 0 -51 -11z
m61 -21 c3 -5 0 -13 -5 -16 -16 -10 -62 4 -55 15 8 13 52 13 60 1z m159 -10
c10 -15 -58 -20 -74 -5 -12 12 -9 14 27 14 23 0 44 -4 47 -9z m-91 -53 c-16
-17 -20 -78 -8 -98 7 -12 52 -9 100 5 23 7 48 -25 39 -50 -6 -14 -9 -14 -30 0
-22 14 -59 20 -106 16 -22 -1 -23 -48 -3 -105 12 -36 12 -41 -3 -52 -14 -11
-20 -10 -35 5 -15 14 -16 23 -7 45 5 15 10 46 10 68 l0 41 -65 -5 c-69 -6
-100 7 -72 31 11 8 24 8 53 -2 21 -8 50 -11 64 -7 27 6 30 20 17 79 -6 28 -9
32 -22 21 -9 -7 -13 -21 -9 -35 7 -27 -4 -36 -36 -28 -21 6 -20 9 31 58 46 45
55 50 75 41 21 -10 21 -12 7 -28z m-130 0 c-24 -23 -40 -20 -30 7 4 8 17 15
29 15 l22 0 -21 -22z m237 -8 c0 -11 -1 -20 -3 -20 -1 0 -10 9 -20 20 -16 19
-16 20 3 20 13 0 20 -7 20 -20z m-305 -10 c-4 -6 -2 -16 4 -23 7 -9 5 -16 -10
-25 -18 -12 -19 -10 -13 15 8 32 13 43 20 43 3 0 2 -5 -1 -10z m266 -19 l24
-19 -28 -13 c-33 -15 -52 -2 -42 30 8 26 16 26 46 2z m99 -27 c0 -19 -16 -25
-28 -11 -6 7 -8 24 -5 36 6 23 7 23 20 6 7 -11 13 -24 13 -31z m-367 -97 c3
-7 3 -26 0 -41 -7 -34 -23 -15 -23 27 0 28 14 37 23 14z m119 -14 c2 -10 2
-26 0 -36 -4 -16 -8 -15 -33 9 -21 20 -26 30 -17 36 22 13 46 9 50 -9z m154 3
c18 -14 18 -16 -16 -51 -28 -28 -36 -32 -37 -18 0 10 -4 33 -8 51 -7 29 -5 32
17 32 13 0 33 -7 44 -14z m92 -16 c0 -16 -3 -30 -8 -30 -13 0 -19 37 -7 49 14
14 14 15 15 -19z m-293 -68 c-28 -6 -44 5 -38 28 l6 21 24 -23 c21 -19 22 -24
8 -26z m248 9 c5 -21 -10 -31 -46 -31 -20 0 -20 0 3 25 28 30 36 31 43 6z
m-185 -59 l23 -18 -41 -2 c-38 -3 -70 10 -70 27 0 14 67 9 88 -7z m122 -2 c12
-8 9 -10 -13 -10 -16 0 -26 4 -22 10 8 12 16 12 35 0z"/>
<path d="M93 895 c-3 -8 4 -31 16 -51 12 -19 17 -33 12 -30 -14 9 -23 -47 -12
-75 6 -18 5 -30 -5 -44 -18 -24 -18 -65 -1 -65 7 0 29 8 50 19 20 10 34 15 31
10 -3 -5 2 -10 10 -10 9 -1 22 -2 29 -3 6 -2 27 3 45 10 18 7 30 9 27 4 -10
-16 34 -22 62 -8 25 12 33 12 71 -5 67 -29 78 -21 48 35 -19 36 -23 54 -17 75
5 16 4 38 0 51 -5 12 -4 22 0 22 11 0 32 58 23 64 -16 9 -198 3 -211 -8 -11
-8 -13 -8 -7 2 10 17 -42 16 -77 -3 -15 -8 -25 -10 -22 -5 4 6 5 10 3 10 -2 0
-18 4 -36 9 -26 8 -34 7 -39 -4z m257 -23 c0 -15 -11 -21 -27 -15 -12 5 -12 7
-1 14 17 11 28 11 28 1z m100 -13 c0 -18 -2 -20 -15 -9 -13 11 -13 15 -3 21
18 12 18 12 18 -12z m-303 -4 c0 -8 -4 -12 -9 -9 -10 7 -10 24 0 24 5 0 9 -7
9 -15z m85 3 c-9 -9 -15 -9 -24 0 -9 9 -7 12 12 12 19 0 21 -3 12 -12z m-45
-5 c-4 -3 -2 -12 4 -19 11 -13 5 -34 -11 -34 -14 0 -21 32 -9 46 6 8 14 14 17
14 3 0 2 -3 -1 -7z m221 -14 c10 -13 8 -19 -11 -35 -12 -10 -19 -15 -15 -10 4
5 0 15 -10 22 -16 12 -16 14 3 28 11 8 20 14 20 13 1 -1 6 -9 13 -18z m-109
-2 c8 -11 7 -18 -7 -29 -15 -13 -20 -12 -42 9 -14 14 -17 21 -8 18 9 -4 19 -2
23 4 8 15 20 14 34 -2z m-48 -76 c-8 -5 -10 -14 -6 -22 4 -8 -2 -4 -14 9 -12
12 -27 20 -33 16 -5 -4 -2 6 8 20 l17 27 21 -21 c17 -17 18 -22 7 -29z m103
26 c17 -13 18 -14 2 -20 -10 -4 -14 -12 -11 -18 4 -6 -2 -5 -14 3 -21 13 -27
29 -14 41 9 10 17 9 37 -6z m78 -12 c4 -19 2 -23 -7 -15 -6 5 -15 6 -20 2 -4
-4 -1 3 6 16 8 12 14 22 15 22 1 0 4 -11 6 -25z m-279 -10 c-7 -21 -13 -19
-13 6 0 11 4 18 10 14 5 -3 7 -12 3 -20z m41 -59 c-16 -12 -20 -12 -30 2 -17
24 13 46 34 25 13 -12 12 -16 -4 -27z m136 7 c0 -2 -5 -1 -10 2 -6 4 -18 1
-26 -6 -13 -10 -17 -10 -24 1 -5 9 -5 19 1 27 9 10 16 9 35 -4 13 -8 24 -17
24 -20z m79 23 c8 -10 8 -16 -3 -25 -10 -9 -16 -8 -26 3 -12 15 -6 36 9 36 5
0 14 -6 20 -14z m-249 -51 c0 -2 -7 -5 -15 -9 -9 -3 -15 0 -15 9 0 9 6 12 15
9 8 -4 15 -7 15 -9z m195 5 c-3 -5 -16 -10 -28 -10 -18 0 -19 2 -7 10 20 13
43 13 35 0z m90 -1 c10 -14 1 -21 -19 -13 -9 3 -13 10 -10 15 7 12 21 11 29
-2z m-205 -9 c-20 -13 -33 -13 -25 0 3 6 14 10 23 10 15 0 15 -2 2 -10z"/>
<path d="M1100 887 c0 -23 22 -67 33 -67 5 0 4 -7 -3 -14 -6 -8 -10 -30 -9
-48 2 -22 -5 -47 -20 -72 -28 -45 -19 -56 37 -46 25 4 36 11 34 20 -3 11 2 10
16 -3 11 -10 34 -17 53 -17 84 1 190 -6 215 -14 30 -10 34 2 19 47 -12 36 -12
76 1 180 6 42 5 47 -13 47 -10 0 -28 -6 -38 -14 -16 -11 -24 -11 -53 1 -18 8
-42 11 -53 8 -17 -6 -18 -9 -7 -23 7 -9 -1 -5 -19 7 -24 18 -39 22 -65 17 -41
-8 -55 -8 -95 0 -26 5 -33 3 -33 -9z m159 -23 c11 -4 10 -8 -5 -23 -17 -16
-20 -16 -31 -2 -7 9 -13 19 -13 22 0 7 30 9 49 3z m-105 -19 c-4 -8 -8 -15
-10 -15 -2 0 -4 7 -4 15 0 8 4 15 10 15 5 0 7 -7 4 -15z m224 3 c-7 -19 -35
-21 -41 -3 -5 11 0 15 19 15 16 0 24 -5 22 -12z m72 -4 c0 -14 -3 -14 -15 -4
-8 7 -15 14 -15 16 0 2 7 4 15 4 8 0 15 -7 15 -16z m-133 -52 c-12 -11 -18
-12 -35 -1 -20 12 -20 14 -4 30 15 15 19 15 35 1 15 -13 16 -18 4 -30z m-113
29 c4 -5 3 -16 0 -25 -5 -12 -9 -13 -24 -3 -14 8 -16 15 -8 24 12 15 25 17 32
4z m215 -4 c16 -20 -6 -39 -29 -25 -13 9 -15 14 -6 24 14 17 21 17 35 1z
m-153 -49 c10 -13 15 -20 10 -16 -5 4 -15 3 -23 -3 -10 -9 -17 -8 -28 1 -13
11 -13 14 2 26 10 7 18 14 19 14 0 0 9 -10 20 -22z m102 0 c11 -14 10 -18 -6
-27 -16 -8 -23 -6 -38 11 -11 12 -14 18 -8 15 7 -4 17 0 24 8 7 9 13 14 14 13
1 -2 7 -11 14 -20z m-204 3 c3 -5 -1 -14 -8 -20 -12 -10 -13 -8 -9 8 6 23 9
25 17 12z m276 -11 c0 -5 -5 -10 -11 -10 -5 0 -7 5 -4 10 3 6 8 10 11 10 2 0
4 -4 4 -10z m-235 -53 c-23 -12 -49 10 -32 28 10 11 15 10 30 -3 16 -14 16
-17 2 -25z m105 2 c0 -21 -7 -23 -29 -10 -12 8 -12 12 -2 25 16 19 31 12 31
-15z m105 11 c3 -6 0 -17 -8 -25 -12 -12 -17 -12 -26 -1 -7 9 -7 16 1 24 15
15 25 15 33 2z m-161 -35 c4 -11 -2 -15 -22 -15 -26 1 -26 1 -8 15 24 18 23
18 30 0z m-99 -5 c3 -5 -1 -10 -9 -10 -9 0 -16 5 -16 10 0 6 4 10 9 10 6 0 13
-4 16 -10z m205 -18 c-25 -4 -35 2 -26 17 5 7 13 7 27 -2 20 -12 20 -12 -1
-15z m95 -10 c-1 -1 -10 0 -19 4 -13 5 -14 9 -4 21 10 13 13 13 19 -4 3 -10 5
-19 4 -21z"/>
<path d="M871 479 c-46 -28 -140 -32 -181 -8 -16 10 -31 15 -34 11 -3 -6 -1
-173 3 -195 0 -5 5 -6 10 -3 5 3 3 -11 -4 -31 -8 -22 -10 -46 -5 -58 5 -13 3
-28 -6 -40 -16 -22 -18 -61 -4 -70 6 -4 24 0 40 9 23 11 38 12 65 5 23 -7 41
-6 53 0 11 6 23 6 28 1 5 -5 26 -12 47 -15 39 -8 42 -4 37 40 -1 11 -5 24 -10
29 -5 4 -6 33 -3 64 5 43 3 53 -6 47 -10 -6 -11 -3 -2 13 13 25 14 72 2 91 -6
9 -6 22 0 33 6 10 9 37 7 58 l-3 40 -34 -21z m-165 -51 c4 -7 3 -8 -4 -4 -7 4
-12 2 -12 -4 0 -6 -5 -8 -10 -5 -11 7 -4 25 10 25 5 0 12 -5 16 -12z m174 0
c0 -4 -4 -8 -9 -8 -6 0 -12 4 -15 8 -3 5 1 9 9 9 8 0 15 -4 15 -9z m-80 -13
c0 -1 -8 -9 -17 -16 -10 -7 -15 -9 -11 -5 4 5 3 15 -3 22 -8 9 -5 11 10 7 12
-3 21 -7 21 -8z m-41 -32 c2 -1 -2 -9 -9 -18 -12 -14 -15 -14 -31 1 -15 13
-16 20 -8 31 9 11 15 11 28 1 9 -7 18 -14 20 -15z m88 9 c8 -5 8 -11 -2 -25
-11 -15 -14 -15 -25 -3 -19 24 1 45 27 28z m-148 -74 c-14 -26 -19 -22 -19 12
0 26 2 29 14 18 10 -9 11 -18 5 -30z m96 -7 c-13 -14 -17 -13 -38 8 -12 13
-17 21 -11 17 7 -3 18 1 25 10 12 14 14 14 26 -2 11 -15 11 -21 -2 -33z m85
12 c-1 -24 -2 -26 -11 -10 -5 9 -7 22 -4 27 10 17 15 11 15 -17z m-131 -37 c9
-10 9 -16 1 -21 -6 -4 -9 -14 -5 -24 4 -11 0 -9 -14 6 -12 12 -18 29 -15 37 8
20 18 20 33 2z m98 3 c19 -19 -6 -50 -28 -36 -14 8 -15 14 -6 29 14 21 19 22
34 7z m-140 -66 c2 -6 -3 -13 -11 -16 -10 -4 -14 0 -13 14 1 20 18 21 24 2z
m89 6 c10 -17 -13 -36 -27 -22 -12 12 -4 33 11 33 5 0 12 -5 16 -11z m80 -26
c-11 -11 -19 6 -11 24 8 17 8 17 12 0 3 -10 2 -21 -1 -24z m-139 -40 c-12 -12
-20 -14 -28 -6 -7 7 -6 15 5 25 8 9 14 18 12 21 -2 2 4 -2 13 -9 14 -13 14
-16 -2 -31z m113 1 c0 -17 -16 -19 -25 -3 -4 6 -14 8 -23 4 -13 -5 -12 -2 3
13 21 21 45 13 45 -14z m-161 -43 c-15 -5 -22 6 -14 19 6 9 10 9 16 -1 5 -8 4
-15 -2 -18z m102 1 c-7 -2 -19 -1 -29 3 -14 5 -14 7 -2 15 9 5 20 4 28 -3 10
-8 11 -12 3 -15z m99 8 c0 -5 -4 -10 -9 -10 -6 0 -13 5 -16 10 -3 6 1 10 9 10
9 0 16 -4 16 -10z"/>
</g>
</svg>
